<svg xmlns="http://www.w3.org/2000/svg" viewBox="0 0 320 320" xml:space="preserve"><path stroke="#000" stroke-miterlimit="10" d="M45.088 213.088c-3.017-6.511 22.098-17.247 28.412-21.588 16-11 23.878-19.264 23-27-1.487-13.114-11-22-30-37-4.266-3.368-31.634-13.697-28.186-18 8.688-10.842 32.254 1.517 53.218 4.737 28.313 4.35 103.73 22.345 161.479 40.576 13.99 4.417 25.567 7.292 39.945 9.445-4.187 9.035-29.345 9.753-38.831 12.1-13.385 3.313-27.275 6.568-41.034 8.976-19.295 3.375-39.105 2.958-58.148 6.773-22.58 4.525-44.028 6.842-65.803 14.733-14.204 5.148-28.732 7.862-44.052 6.248"/></svg>