<svg xmlns="http://www.w3.org/2000/svg" viewBox="0 0 320 320" xml:space="preserve"><path stroke="#000" stroke-miterlimit="10" d="M39.492 94.918c.766-14.476 3.196-29.664 4.008-44.418 1.098-19.938 18.487-10.443 34-8 34.05 5.363 64.151 5.448 97.928 12.495 14.044 2.93 27.813 6.949 41.674 10.549 12.346 3.206 24.121 4.965 36.461 7.364 16.173 3.144 32.291 5.739 46.705 13.799 19.387 10.841-9.197 12.489-15.768 14.793-7.786 2.73-25.042 7.208-33 8-11.776 1.171-23.57 9.46-35.291 10.992-18.146 2.371-23.016 3.529-41.259 7.228-9.099 1.844-30.841.824-40.45 1.78-10.146 1.01-21.488 4.93-31.561 6.358-13.767 1.953-28.192 2.226-42.195 2.229-5.231.001-11.242 1.259-14.98-2.066-3.743-3.329-5.37-9.228-6.246-13.781-1.731-9.003-.573-18.025-.573-27.322"/><path fill="#020202" stroke="#000" stroke-miterlimit="10" d="M39.492 225.52c0-13.789-5.032-42.896 12.113-46.938 17.507-4.126 31.875 2.736 48.258 7.292 21.597 6.006 43.641 9.897 65.482 15.19 15.284 3.703 31.099 5.58 46.428 8.623 12.123 2.405 23.653 5.025 35.597 8.197 16.03 4.258 33.878 1.213 48.754 9.82 2.064 1.195 3.767 2.454 6.139 3.372 2.043 12.702-49.17 18.313-57.264 19.635-13.703 2.235-27.256 7.644-41.396 9.647-16.368 2.32-32.48 6.596-49.113 7.235-11.014.425-21.979 3.201-33.146 3.946-11.65.777-23.25.973-34.994.973H56.924c-7.692 0-13.738 1.409-16.487-6.971-4.069-12.406 3.317-27.383-.942-39.479"/></svg>