<svg xmlns="http://www.w3.org/2000/svg" viewBox="0 0 320 320" xml:space="preserve"><path stroke="#000" stroke-miterlimit="10" d="M33.632 101.065c0-6.781.329-13.37.925-19.997-1.754-7.664-.379-17.167-.379-24.95 0-2.402-.716-6.017.002-8.284 1.265-3.998.568-2.688 4.888-3.189 6.606-.766 14.073-.353 20.754-.028 8.186.398 16.219 1.545 24.163 3.079.575.876 1.54 1.54 2.962 1.771 5.982.971 11.96 1.968 17.938 2.958 2.812.696 5.619 1.401 8.424 2.099 6.991 1.74 12.674 5.515 20.183 6.676 5.591.865 10.817 1.93 16.361 2.994 18.302 3.511 36.962 4.883 55.426 7.27 4.269.552 8.538.785 12.808.899 18.492 3.326 37.393 7.169 54.376 14.684.003.218-.008.439-.033.662-1.093 9.645-30.647 13.427-38.149 14.874-35.528 6.854-72.184 6.954-108.182 12.517-14.069 2.174-27.528 5.665-41.752 7.114-12.563 1.28-25.362 6.869-38.255 5.493-7.41-.791-9.958-1.344-11.791-8.745-1.375-5.548-.669-12.094-.669-17.897zM33.451 228.798l8.227 8.743 47.541-44.263 50.819 50.821 50.274-40.985 61.202 47.541 18.579-25.135-65.028-50.274-52.108 45.356-54.8-55.941z"/></svg>