<svg xmlns="http://www.w3.org/2000/svg" viewBox="0 0 320 320" xml:space="preserve"><path stroke="#000" stroke-miterlimit="10" d="M74.468 225.52c-1.65-2.407-51.989-8.887-28.096-17.06 21.551-7.373 46.518-4.489 68.67-9.61 10.497-2.427 20.202-5.215 31.077-6.089 11.854-.952 23.55-2.552 34.916-5.489 20.601-5.323 43.629-6.464 65.205-8.077 8.848-.661 19.038-4.188 28.095-1.925 7.948 1.985 7.236 9.306 7.237 16.288.003 16.152 3.279 31.507 3.279 47.688 0 3.595 1.756 14.595-.204 17.497-2.322 3.438-11.173 3.276-14.578 4.349-13.424 4.225-29.378 2.194-43.291.011-15.262-2.396-29.291-9.888-44.766-11.38-14.002-1.35-26.379-4.007-39.83-6.503-3.454-.641-6.291-2.693-9.339-3.638-3.757-1.164-8.057-.884-11.833-1.84-5.851-1.481-11.727-4.196-17.564-5.894-5.414-1.574-11.647-1.646-17.118-3.383-5.585-1.772-7.946-5.623-14.045-5.493M272.281 101.065c0-6.781-.329-13.37-.925-19.997 1.754-7.664.379-17.167.379-24.95 0-2.402.716-6.017-.002-8.284-1.265-3.998-.568-2.688-4.888-3.189-6.606-.766-14.073-.353-20.754-.028-8.186.398-16.219 1.545-24.163 3.079-.575.876-1.54 1.54-2.962 1.771-5.982.971-11.96 1.968-17.938 2.958-2.812.696-5.619 1.401-8.424 2.099-6.991 1.74-12.674 5.515-20.183 6.676-5.591.865-10.817 1.93-16.361 2.994-18.302 3.511-36.962 4.883-55.426 7.27-4.269.552-8.539.785-12.808.899-18.493 3.326-37.393 7.169-54.376 14.684-.002.218.008.439.033.662 1.093 9.645 30.648 13.427 38.149 14.874 35.529 6.854 72.184 6.954 108.182 12.517 14.069 2.174 27.528 5.665 41.752 7.114 12.563 1.28 25.362 6.869 38.255 5.493 7.41-.791 9.958-1.344 11.791-8.745 1.375-5.548.669-12.094.669-17.897z"/></svg>