<svg xmlns="http://www.w3.org/2000/svg" viewBox="0 0 320 320" xml:space="preserve"><path stroke="#000" stroke-miterlimit="10" d="M302.402 212.302c-.766 14.476-1.089 26.444-1.901 41.198-1.1 19.938-16.478 19.834-31.991 17.391a2103.202 2103.202 0 0 1-102.044-18.666c-14.044-2.93-27.813-6.949-41.674-10.549-12.347-3.205-24.121-4.965-36.461-7.363-16.173-3.145-32.291-5.739-46.705-13.801C22.238 209.671 52.43 205.305 59 203c7.786-2.729 20.042-6.709 28-7.5 11.776-1.172 18.779-3.467 30.5-5 18.146-2.371 24.257-5.914 42.5-9.612 9.098-1.845 37.892-4.431 47.5-5.388 10.146-1.011 21.38-2.711 31.452-4.139 13.767-1.953 28.192-2.228 42.194-2.229 5.231-.002 11.242-1.26 14.98 2.065 3.742 3.328 5.369 9.228 6.245 13.781 1.732 9.002.573 18.023.573 27.321"/><path fill="#020202" stroke="#000" stroke-miterlimit="10" d="M287.514 34.668c1.264.563 2.527 1.128 3.793 1.688.094.276.195.551.299.824.304 1.088.606 2.173.906 3.258-.055 2.144-.25 2.144-.344 4.284-1.406 1.363-10.11 4.621-11.334 5.778-18.667 5.667-31.288 10.517-32.334 24.333-1.17 15.453 21.703 34.879 32.667 44 .282 1.297 6.088 5.11 6.32 6.438-.431 1.433-1.05 2.816-1.728 4.184-15.506 2.101-28.782-3.953-43.729-8.109-21.596-6.006-43.64-9.897-65.48-15.19-15.284-3.703-31.099-5.581-46.428-8.623-12.123-2.406-23.653-5.026-35.597-8.198-16.03-4.258-33.878-1.212-48.754-9.82-2.064-1.195-3.767-2.454-6.139-3.372C37.59 63.44 88.803 57.828 96.896 56.508c13.703-2.235 27.256-7.644 41.396-9.647 16.368-2.32 32.48-6.596 49.113-7.236 11.014-.424 21.979-3.201 33.146-3.946 11.65-.778 23.25-.972 34.994-.972h29.426c.872-.001 1.717-.019 2.543-.039z"/></svg>