<svg xmlns="http://www.w3.org/2000/svg" viewBox="0 0 320 320" xml:space="preserve"><path stroke="#000" stroke-miterlimit="10" d="M249.104 240.328c-10.338-7.073-33.334-10.929-32.787-25.792-1.093-11.367 13.661-17.377 26.775-24.481 2.112-1.144 30.074-11.483 29.356-13.751-1.265-3.998-.568-2.688-4.888-3.188-6.606-.766-14.073-.353-20.754-.028-8.186.398-16.219 1.545-24.163 3.079-.575.876-1.54 1.54-2.962 1.771-5.982.971-11.96 1.968-17.938 2.957-2.812.697-5.619 1.401-8.424 2.1-6.991 1.739-12.674 5.514-20.183 6.676-5.591.865-10.817 1.93-16.361 2.994-18.302 3.51-36.962 4.883-55.426 7.27-4.269.551-8.538.785-12.808.898-18.492 3.326-37.393 7.17-54.376 14.684a5.28 5.28 0 0 0 .033.662c1.093 9.646 30.647 13.428 38.149 14.875 35.528 6.854 72.184 6.953 108.182 12.516 14.069 2.175 27.528 5.666 41.752 7.115 12.563 1.279 25.362 6.868 38.255 5.492 7.41-.79 9.958-1.344 11.791-8.744 1.375-5.549-12.842 0-23.223-7.105zM33.451 106.94l8.227 8.744 47.541-44.263 50.819 50.82 50.274-40.984 61.202 47.541 18.579-25.136-65.028-50.273-52.108 45.355-54.8-55.94z"/></svg>