<svg xmlns="http://www.w3.org/2000/svg" viewBox="0 0 320 320" xml:space="preserve"><path stroke="#000" stroke-miterlimit="10" d="M302.402 94.918c-.766-14.476 4.092-28.962 3.279-43.716-1.1-19.938-21.658-17.317-37.172-14.874a2103.21 2103.21 0 0 0-102.044 18.667c-14.044 2.93-27.813 6.949-41.674 10.549-12.347 3.206-24.121 4.965-36.461 7.364-16.173 3.144-32.291 5.739-46.705 13.799-19.388 10.841 18.139 20.114 24.709 22.418 7.786 2.73 17.036 4.686 24.994 5.478 11.776 1.171 22.635 4.357 34.355 5.889 18.146 2.371 36.463 6.263 54.706 9.961a277.643 277.643 0 0 0 27.868 4.205c10.146 1.01 20.622-.228 30.694 1.2 13.767 1.953 28.192 2.226 42.194 2.229 5.231.001 11.242 1.259 14.98-2.066 3.742-3.329 5.369-9.228 6.245-13.781 1.732-9.003.573-18.025.573-27.322"/><path fill="#020202" stroke="#000" stroke-miterlimit="10" d="M287.514 272.552c1.264-.563 2.527-1.128 3.793-1.688.094-.276.195-.552.299-.824.304-1.088.606-2.173.906-3.258-.055-2.144-1.168-1.642-1.262-3.782-1.406-1.363-4.878-1.317-9.75-2.5-8.5-2.75-43.704-19.183-44.75-33-1.17-15.452 15.354-34.006 47.795-41.104 4.455-1.646 2.71-3.121 2.942-4.448-.431-1.433-1.05-2.816-1.728-4.185-15.506-2.101-28.782 3.953-43.729 8.109-21.596 6.006-43.64 9.896-65.48 15.189-15.284 3.703-31.099 5.582-46.428 8.623-12.123 2.406-23.653 5.026-35.597 8.198-16.03 4.259-33.878 1.212-48.754 9.82-2.064 1.194-3.767 2.454-6.139 3.372-2.043 12.701 49.17 18.314 57.264 19.635 13.703 2.234 27.256 7.645 41.396 9.646 16.368 2.32 32.48 6.597 49.114 7.236 11.013.424 21.978 3.201 33.146 3.946 11.65.778 23.25.972 34.994.972h29.426c.871.005 1.716.023 2.542.043z"/></svg>