<svg xmlns="http://www.w3.org/2000/svg" viewBox="0 0 320 320" xml:space="preserve"><path stroke="#000" stroke-miterlimit="10" d="M271.614 118.962c-1.833 7.401-4.381 7.954-11.791 8.745-12.893 1.376-25.692-4.213-38.255-5.493-14.224-1.449-27.683-4.94-41.752-7.114-35.998-5.563-72.654-5.663-108.182-12.517-7.503-1.447-37.057-5.229-38.149-14.874a5.289 5.289 0 0 1-.033-.662c16.983-7.515 35.884-11.358 54.376-14.684 4.271-.114 8.539-.347 12.809-.899 18.464-2.387 37.124-3.759 55.426-7.27 5.544-1.064 10.77-2.129 16.36-2.994 7.51-1.161 13.192-4.936 20.184-6.676 2.805-.698 5.612-1.403 8.424-2.099 5.978-.99 11.956-1.987 17.938-2.958 1.422-.231 2.387-.895 2.962-1.771 7.943-1.534 15.977-2.681 24.163-3.079 6.681-.325 14.147-.738 20.754.028 4.319.501 3.623-.809 4.888 3.189.718 2.267.002 5.882.002 8.284 0 7.783 1.375 17.286-.379 24.95.596 6.627.925 13.216.925 19.997-.002 5.803.705 12.349-.67 17.897zM33.451 228.798l8.227 8.743 47.541-44.264 50.819 50.823 50.274-40.986 61.202 47.54 18.579-25.134-65.028-50.274-52.108 45.356-54.8-55.941z"/></svg>