<svg xmlns="http://www.w3.org/2000/svg" viewBox="0 0 320 320" xml:space="preserve"><path stroke="#000" stroke-miterlimit="10" d="M39.492 94.918c.766-14.476-4.092-28.962-3.279-43.716 1.098-19.938 21.658-17.317 37.171-14.874a2103.21 2103.21 0 0 1 102.044 18.667c14.044 2.93 27.813 6.949 41.674 10.549 12.346 3.206 24.121 4.965 36.461 7.364 16.173 3.144 32.291 5.739 46.705 13.799 19.387 10.841-18.139 20.114-24.709 22.418-7.786 2.73-17.036 4.686-24.994 5.478-11.776 1.171-22.635 4.357-34.355 5.889-18.146 2.371-36.463 6.263-54.706 9.961a277.663 277.663 0 0 1-27.869 4.205c-10.146 1.01-20.622-.228-30.694 1.2-13.767 1.953-28.192 2.226-42.195 2.229-5.231.001-11.242 1.259-14.98-2.066-3.743-3.329-5.37-9.228-6.246-13.781-1.731-9.003-.573-18.025-.573-27.322"/><path fill="#020202" stroke="#000" stroke-miterlimit="10" d="M302.262 231.077c-2.372-.918-4.073-2.177-6.139-3.372-14.876-8.607-32.724-5.563-48.754-9.82-11.942-3.172-23.474-5.792-35.597-8.197-15.329-3.043-31.144-4.92-46.428-8.623-21.842-5.293-43.886-9.186-65.482-15.19-15.726-4.373-29.599-10.866-46.171-7.729-.197 2.244.184 4.561.491 6.91C65.718 194.221 97.5 196.5 94.5 224.961c-3 33.539-22.176 25.256-32 34.539-3.526 3.331-17.436 4.6-18.621 9.594a11.127 11.127 0 0 0-.249 1.551c3.21 2.576 7.835 1.871 13.289 1.871h29.426c11.745 0 23.344-.193 34.994-.973 11.168-.745 22.133-3.521 33.146-3.945 16.634-.642 32.746-4.916 49.114-7.236 14.141-2.004 27.693-7.412 41.396-9.647 8.097-1.322 59.31-6.936 57.267-19.638z"/></svg>