<svg xmlns="http://www.w3.org/2000/svg" viewBox="0 0 320 320" xml:space="preserve"><path stroke="#000" stroke-miterlimit="10" d="M83.5 28.5c5.75-17 34.75 58.5 76.5 57 32.5-1 36.186-53.954 49.5-54 13.688-.047 10.255-.631 5.317 13.229-3.447 9.684-6.979 19.83-10.24 29.713-3.558 10.772-5.334 20.028-8.073 31.05-3.923 15.782-3.926 32.942-6.788 49.491-2.845 16.438-8.452 32.64-11.988 49.292-1.545 7.275-8.74 76.469-15.502 77.093-.506.354-1.015.36-1.523.021-6.452-26.703-17.258-51.568-22.306-77.96-4.751-24.843-7.294-39.646-15.896-60.929-7.801-19.299-17.188-49.185-22.997-69.226C96.026 61.276 88.5 43.75 83.5 28.5"/></svg>