<svg xmlns="http://www.w3.org/2000/svg" viewBox="0 0 320 320" xml:space="preserve"><path stroke="#000" stroke-miterlimit="10" d="M105.499 277.502c6.511 3.018 15.735.34 23.334 1.332 7.576.989 16.517.781 24.253 1.659 13.114 1.487 27.958.478 41.193.007 5.433-.191 23.965 1.742 28.268-1.706 10.842-8.688-17.907-64.929-22.048-72.293-12.667-41.333-17.494-82.176-35.727-139.924-4.417-13.99-7.292-25.567-9.444-39.945-9.035 4.187-9.752 29.345-12.101 38.832-3.312 13.384-6.567 27.275-8.975 41.034-3.375 19.295-2.958 39.106-6.774 58.148-4.524 22.58-6.841 44.028-14.732 65.804-5.147 14.204-12.246 44.217-7.247 47.052"/></svg>