<svg xmlns="http://www.w3.org/2000/svg" viewBox="0 0 320 320" xml:space="preserve"><path stroke="#000" stroke-miterlimit="10" d="M42.088 214.087c-3.018-6.511.404-19.489-.588-27.087-.988-7.576-1.527-12.762-2.405-20.499-1.487-13.114-.477-27.958-.007-41.194.191-5.432-4.222-11.504-.774-15.807 8.688-10.842 32.254 1.517 53.219 4.737 28.313 4.35 103.729 22.345 161.479 40.576 13.99 4.417 25.567 7.292 39.945 9.445-4.188 9.035-29.346 9.753-38.831 12.1-13.385 3.313-27.275 6.568-41.034 8.977-19.295 3.375-39.105 2.958-58.148 6.773-22.58 4.524-44.027 6.842-65.803 14.732-14.205 5.146-31.732 8.861-47.053 7.247"/></svg>