<svg xmlns="http://www.w3.org/2000/svg" viewBox="0 0 320 320" xml:space="preserve"><path stroke="#000" stroke-miterlimit="10" d="M106.5 274.5c6.511 3.017 21.076-32.719 28-36 10.004-4.741 17.764-14.878 25.5-14 13.114 1.487 27.067 12.787 35.5 23 14.031 16.993 22.745 34.742 27.048 31.294 10.842-8.688-5.827-29.08-9.968-36.445-30.228-53.776-29.574-118.024-47.806-175.772-4.417-13.99-7.292-25.567-9.445-39.945-9.035 4.187-9.752 29.345-12.1 38.832-3.312 13.384-6.568 27.275-8.975 41.034-3.375 19.295-2.958 39.106-6.774 58.149-4.525 22.58-6.841 44.028-14.733 65.803-5.148 14.204-8.861 31.731-7.248 47.052"/></svg>