<svg xmlns="http://www.w3.org/2000/svg" viewBox="0 0 320 320" xml:space="preserve"><path stroke="#000" stroke-miterlimit="10" d="M39.492 212.302c.766 14.476-1.472 30.444-.659 45.198-.092 8.482 21.82 8.11 37.333 5.667 34.05-5.363 54.891-5.287 88.667-12.334 14.044-2.93 38.408-5.558 52.269-9.157 12.347-3.205 24.121-4.965 36.461-7.363 16.173-3.145 32.291-5.739 46.705-13.801 19.387-10.841-18.139-20.113-24.709-22.418-7.786-2.729-17.036-4.686-24.994-5.477-11.776-1.172-22.635-4.357-34.355-5.891-18.146-2.371-36.463-6.263-54.706-9.961a277.687 277.687 0 0 0-27.868-4.205c-10.146-1.011-20.622.229-30.694-1.199-13.767-1.953-28.192-2.228-42.194-2.229-5.231-.002-11.242-1.26-14.98 2.065-3.743 3.328-5.37 9.228-6.246 13.781-1.731 9.002-.573 18.023-.573 27.321"/><path fill="#020202" stroke="#000" stroke-miterlimit="10" d="M244.998 56.508c-13.703-2.235-27.256-7.644-41.396-9.647-16.368-2.32-32.48-6.596-49.114-7.236-11.013-.424-21.978-3.201-33.146-3.946-11.65-.778-23.25-.972-34.994-.972H56.922c-.87 0-1.716-.019-2.541-.038-1.264.563-2.527 1.128-3.793 1.688-.094.276-.195.551-.299.824l-.624 2.243c2.72 5.583 16.12 3.729 25.835 5.326 12 2.5 35 11.5 35.25 29.75-.75 37.75-33.031 33.03-51.093 42.674a56.449 56.449 0 0 1-4.453 4.144 100.191 100.191 0 0 0-.796 3.955c.431 1.433 1.05 2.816 1.728 4.184 15.506 2.101 28.782-3.953 43.729-8.109 21.596-6.006 43.64-9.897 65.48-15.19 15.284-3.703 31.099-5.581 46.428-8.623 12.123-2.406 23.653-5.026 35.597-8.198 16.03-4.258 33.878-1.212 48.754-9.82 2.064-1.195 3.767-2.454 6.139-3.372 2.042-12.705-49.171-18.317-57.265-19.637z"/></svg>