<svg xmlns="http://www.w3.org/2000/svg" viewBox="0 0 320 320" xml:space="preserve"><path stroke="#000" stroke-miterlimit="10" d="M249.104 244.064c-10.338-7.072-33.334-10.928-32.787-25.791-1.093-11.365 13.661-17.377 26.775-24.48 2.112-1.145 30.074-11.484 29.355-13.75-1.265-3.998-.567-2.689-4.888-3.189-6.605-.766-14.073-.354-20.754-.027-8.186.396-16.219 1.545-24.163 3.078-.575.877-1.54 1.539-2.962 1.771-5.981.971-11.96 1.967-17.938 2.957-2.813.697-5.619 1.402-8.425 2.1-6.99 1.74-12.674 5.516-20.183 6.676-5.591.865-10.817 1.93-16.361 2.994-18.302 3.512-36.962 4.883-55.426 7.27-4.269.553-8.538.785-12.808.9-18.492 3.324-37.394 7.168-54.376 14.684-.003.217.008.438.032.662 1.094 9.645 30.647 13.426 38.149 14.873 35.528 6.854 72.184 6.955 108.182 12.518 14.069 2.174 27.528 5.664 41.752 7.113 12.563 1.281 25.362 6.869 38.256 5.494 7.409-.791 9.958-1.346 11.791-8.746 1.377-5.55-12.84-.001-23.221-7.107zM33.451 102.005l8.227 8.744 47.541-44.264 50.819 50.822 50.274-40.985 61.202 47.54 18.579-25.135-65.028-50.273-52.108 45.355-54.8-55.94z"/></svg>